HIERARCHY
ROOT Hips
{
    OFFSET 0.000000 0.000000 0.000000
    CHANNELS 6 Xposition Yposition Zposition Zrotation Xrotation Yrotation
    JOINT Spine
    {
        OFFSET -0.000000 14.517291 0.000000
        CHANNELS 3 Zrotation Xrotation Yrotation
        JOINT Spine1
        {
            OFFSET -0.000000 37.558300 0.000000
            CHANNELS 3 Zrotation Xrotation Yrotation
            JOINT Neck
            {
                OFFSET -0.000000 37.404057 3.400369
                CHANNELS 3 Zrotation Xrotation Yrotation
                JOINT Head
                {
                    OFFSET -0.000000 24.785618 -3.540803
                    CHANNELS 3 Zrotation Xrotation Yrotation
                    End Site
                    {
                        OFFSET -0.000000 35.408028 0.000000
                    }
                }
            }
            JOINT LeftShoulder
            {
                OFFSET 6.992933 33.973492 -0.192664
                CHANNELS 3 Zrotation Xrotation Yrotation
                JOINT LeftArm
                {
                    OFFSET 21.527611 0.000000 0.000000
                    CHANNELS 3 Zrotation Xrotation Yrotation
                    JOINT LeftForeArm
                    {
                        OFFSET 56.353916 0.000000 0.000000
                        CHANNELS 3 Zrotation Xrotation Yrotation
                        JOINT LeftHand
                        {
                            OFFSET 47.774071 0.000000 0.000000
                            CHANNELS 3 Zrotation Xrotation Yrotation
                            End Site
                            {
                                OFFSET 26.556021 0.000000 0.000000
                            }
                        }
                    }
                }
            }
            JOINT RightShoulder
            {
                OFFSET -7.065357 33.973492 -0.192664
                CHANNELS 3 Zrotation Xrotation Yrotation
                JOINT RightArm
                {
                    OFFSET -21.527611 0.000000 0.000000
                    CHANNELS 3 Zrotation Xrotation Yrotation
                    JOINT RightForeArm
                    {
                        OFFSET -56.353916 0.000000 0.000000
                        CHANNELS 3 Zrotation Xrotation Yrotation
                        JOINT RightHand
                        {
                            OFFSET -47.774071 0.000000 0.000000
                            CHANNELS 3 Zrotation Xrotation Yrotation
                            End Site
                            {
                                OFFSET -26.556021 0.000000 0.000000
                            }
                        }
                    }
                }
            }
        }
    }
    JOINT LeftUpLeg
    {
        OFFSET 17.704014 0.000000 0.000000
        CHANNELS 3 Zrotation Xrotation Yrotation
        JOINT LeftLeg
        {
            OFFSET -0.000000 -81.181816 0.000000
            CHANNELS 3 Zrotation Xrotation Yrotation
            JOINT LeftFoot
            {
                OFFSET -0.000000 -62.821102 0.000000
                CHANNELS 3 Zrotation Xrotation Yrotation
                JOINT LeftToeBase
                {
                    OFFSET -0.000000 -11.507608 26.556021
                    CHANNELS 3 Zrotation Xrotation Yrotation
                    End Site
                    {
                        OFFSET -0.000000 0.000000 7.081605
                    }
                }
            }
        }
    }
    JOINT RightUpLeg
    {
        OFFSET -17.704014 0.000000 0.000000
        CHANNELS 3 Zrotation Xrotation Yrotation
        JOINT RightLeg
        {
            OFFSET -0.000000 -81.181816 0.000000
            CHANNELS 3 Zrotation Xrotation Yrotation
            JOINT RightFoot
            {
                OFFSET -0.000000 -62.821102 0.000000
                CHANNELS 3 Zrotation Xrotation Yrotation
                JOINT RightToeBase
                {
                    OFFSET -0.000000 -11.507608 26.556021
                    CHANNELS 3 Zrotation Xrotation Yrotation
                    End Site
                    {
                        OFFSET -0.000000 0.000000 7.081605
                    }
                }
            }
        }
    }
}
MOTION
Frames:    12
Frame Time:    0.008333
3.075652    151.907623    -65.307747    2.005344    2.707575    31.974426    0.187642    3.755569    -1.504187    -5.438152    0.568518    -0.471483    0.898465    7.759442    -14.683700    11.627054    -12.316115    -12.512572    0.325910    10.068091    -14.317641    -32.994541    21.790239    -47.678852    -3.606040    -26.354334    -117.488800    -9.142253    -30.569187    -14.350991    -2.091595    10.162318    -3.281444    26.867990    13.018623    45.287796    -9.037096    6.107015    47.126503    -25.425682    3.893071    26.837633    29.968830    -6.288929    -8.758079    -9.831501    23.669500    -20.190603    -21.033867    -9.696527    53.167355    0.000000    0.000000    0.000000    -23.293499    -27.812107    -9.287738    16.844280    42.700272    -12.673862    2.507377    -10.820453    -11.914789    0.000000    0.000000    0.000000    
2.401419    152.171631    -64.832779    2.094794    2.767139    32.039680    0.237610    3.727087    -1.519474    -5.570505    0.618189    -0.472973    0.813828    7.720123    -14.676179    11.657142    -12.182867    -12.504138    0.265375    10.081000    -14.260118    -33.021152    21.769348    -47.822842    -3.660289    -26.282055    -117.451569    -9.081206    -30.582945    -14.307316    -2.164332    10.176587    -3.239229    26.832066    13.080254    45.405891    -9.222308    5.847013    47.187683    -25.543762    3.734632    26.650311    29.458828    -6.366077    -8.368742    -9.834403    24.179594    -20.470650    -20.092064    -10.130766    51.670090    0.000000    0.000000    0.000000    -22.993683    -27.724566    -9.303472    16.627092    42.619427    -12.504749    2.278636    -10.875124    -11.961331    0.000000    0.000000    0.000000    
1.720395    152.426239    -64.369217    2.155927    2.781675    32.046852    0.257079    3.742961    -1.495566    -5.601480    0.620084    -0.464447    0.765047    7.770582    -14.667736    11.613430    -12.156071    -12.504344    0.174529    10.136404    -14.246719    -33.039471    21.762491    -47.933525    -3.679517    -26.297171    -117.412506    -9.057036    -30.624231    -14.293374    -2.246724    10.156774    -3.155759    26.886600    12.997679    45.442490    -9.208774    5.857662    47.342007    -25.726400    3.753567    26.464151    28.932470    -6.394753    -7.824646    -9.727615    24.810211    -20.782286    -19.492699    -10.962031    49.962914    0.000000    0.000000    0.000000    -22.679632    -27.616911    -9.077529    16.712828    42.434345    -12.498186    2.061275    -10.926854    -12.080029    0.000000    0.000000    0.000000    
1.073930    152.678925    -63.905113    2.217479    2.755220    32.056774    0.271850    3.758504    -1.467091    -5.580484    0.664672    -0.452692    0.571469    7.768572    -14.668418    11.764849    -12.015957    -12.466887    0.101934    10.166389    -14.228222    -33.101982    21.698994    -48.028057    -3.762506    -26.170643    -117.400925    -8.962388    -30.637764    -14.178272    -2.327895    10.184671    -3.146308    26.848970    13.017941    45.583542    -9.356647    5.714169    47.455872    -25.745144    3.733844    26.246437    28.446642    -6.364099    -7.368695    -9.782420    25.465431    -21.019424    -18.855864    -11.852244    48.172100    0.000000    0.000000    0.000000    -22.281155    -27.478195    -9.034706    16.430754    42.314426    -12.413993    1.949221    -10.937226    -11.946616    0.000000    0.000000    0.000000    
0.443142    152.911911    -63.473724    2.248522    2.739648    32.061661    0.303762    3.764790    -1.451068    -5.568379    0.676095    -0.446504    0.517608    7.836859    -14.663037    11.745282    -11.995195    -12.463478    0.017902    10.179203    -14.210314    -33.139637    21.691025    -48.092567    -3.826909    -26.080116    -117.398315    -8.814404    -30.663002    -14.105179    -2.395343    10.179091    -3.091389    26.847733    12.995264    45.653114    -9.382778    5.789570    47.721638    -25.603584    3.964937    25.899364    28.020407    -6.344230    -7.058250    -10.059492    26.099997    -21.068716    -18.287355    -12.698191    46.175842    0.000000    0.000000    0.000000    -21.957062    -27.333855    -8.921331    16.492748    42.086845    -12.484740    1.615314    -10.936733    -11.992765    0.000000    0.000000    0.000000    
-0.175709    153.135376    -63.061768    2.261851    2.739213    32.075321    0.308778    3.720982    -1.432092    -5.529925    0.743129    -0.437287    0.484569    7.840130    -14.646527    11.734958    -11.937620    -12.451834    0.000686    10.174876    -14.176031    -33.154709    21.813354    -48.227818    -3.751134    -26.206625    -117.335434    -8.784603    -30.677038    -14.048707    -2.418611    10.185735    -3.085521    26.783752    12.993585    45.774349    -9.494045    5.686865    47.845657    -25.647522    3.959006    25.707890    27.522034    -6.354845    -6.595344    -10.177691    26.792566    -20.842152    -18.018986    -13.379863    43.961575    0.000000    0.000000    0.000000    -21.602106    -27.226639    -8.931465    16.293242    41.930420    -12.289054    1.437299    -10.938965    -11.994029    0.000000    0.000000    0.000000    
-0.772654    153.348953    -62.659359    2.264585    2.727726    32.090012    0.337403    3.702515    -1.431834    -5.541179    0.741717    -0.436831    0.536728    7.819905    -14.613796    11.638622    -11.807088    -12.457942    0.069946    10.206740    -14.137380    -33.239628    21.870924    -48.380089    -3.751729    -26.220646    -117.312988    -8.704398    -30.704174    -13.949279    -2.402071    10.226747    -3.047264    26.780416    12.940507    45.849407    -9.611333    5.614859    47.981754    -25.642672    3.989406    25.560034    26.979094    -6.347977    -6.061379    -10.135894    27.610867    -21.208168    -17.811722    -14.240170    42.302826    0.000000    0.000000    0.000000    -21.245363    -27.111908    -8.887244    16.151495    41.755878    -12.127421    1.259047    -10.936796    -12.037136    0.000000    0.000000    0.000000    
-1.366290    153.555695    -62.275814    2.225443    2.734635    32.106598    0.341195    3.639951    -1.408463    -5.461101    0.766815    -0.428434    0.512190    7.811025    -14.592832    11.633488    -11.727728    -12.443185    0.059500    10.206179    -14.123924    -33.285885    21.930376    -48.429783    -3.781292    -26.178202    -117.345230    -8.687297    -30.715851    -13.868407    -2.404212    10.233051    -3.061911    26.793495    12.898807    45.934811    -9.667722    5.583390    48.123417    -25.698341    4.028816    25.373980    26.506222    -6.395665    -5.605782    -10.206242    28.447124    -21.839722    -17.671032    -15.108416    41.507381    0.000000    0.000000    0.000000    -20.875689    -27.032505    -8.864294    16.004784    41.563099    -12.007963    1.084468    -10.907691    -12.020697    0.000000    0.000000    0.000000    
-1.942261    153.756638    -61.897766    2.167450    2.706796    32.120819    0.348574    3.582259    -1.399299    -5.369887    0.799212    -0.424521    0.535171    7.744383    -14.562685    11.581910    -11.559525    -12.442694    0.117474    10.201447    -14.102077    -33.291950    22.035700    -48.456177    -3.780674    -26.183729    -117.403076    -8.636206    -30.731445    -13.867298    -2.369282    10.218212    -3.051198    26.808386    12.776592    45.987480    -9.650072    5.644261    48.227230    -25.804342    4.082632    25.310017    26.053406    -6.436496    -5.306977    -10.298444    29.257294    -22.383963    -17.825809    -16.339039    41.198185    0.000000    0.000000    0.000000    -20.463018    -26.934214    -8.863582    15.804375    41.376999    -11.836188    0.936923    -10.867028    -12.024933    0.000000    0.000000    0.000000    
-2.500761    153.943893    -61.551380    2.104338    2.696726    32.144669    0.342652    3.513692    -1.379048    -5.262249    0.829288    -0.417265    0.635063    7.745005    -14.543693    11.431965    -11.540830    -12.468310    0.147519    10.167295    -14.098714    -33.340214    22.120594    -48.484001    -3.781579    -26.147427    -117.435265    -8.637239    -30.703211    -13.840281    -2.318707    10.212132    -3.087475    26.780323    12.749693    46.063095    -9.711724    5.603701    48.325729    -25.877300    4.091126    25.191637    25.584372    -6.524567    -4.982468    -10.304091    30.161371    -23.191982    -17.729086    -17.548552    41.142467    0.000000    0.000000    0.000000    -20.081669    -26.857553    -8.882306    15.610289    41.193073    -11.660699    0.790941    -10.812084    -12.020316    0.000000    0.000000    0.000000    
-3.048833    154.123566    -61.199112    2.016933    2.654593    32.180321    0.327591    3.466274    -1.386979    -5.096799    0.831719    -0.421241    0.588951    7.727266    -14.530195    11.494625    -11.426982    -12.446806    0.191865    10.173823    -14.064223    -33.366333    22.213482    -48.533409    -3.781937    -26.138592    -117.500206    -8.612133    -30.704893    -13.838321    -2.291521    10.203693    -3.090634    26.832487    12.617742    46.095886    -9.664351    5.692627    48.420811    -25.942219    4.168964    25.126577    25.179569    -6.564839    -4.907821    -10.452911    31.005899    -24.145849    -17.175306    -18.741859    41.442856    0.000000    0.000000    0.000000    -19.669817    -26.759056    -8.864785    15.459922    41.004318    -11.487379    0.653786    -10.770419    -12.082353    0.000000    0.000000    0.000000    
-3.575003    154.287460    -60.881035    1.930459    2.623203    32.193604    0.315313    3.411812    -1.379701    -4.965272    0.829486    -0.420013    0.702820    7.700843    -14.519498    11.344213    -11.334289    -12.489460    0.243255    10.155520    -14.099284    -33.452522    22.232035    -48.460571    -3.846723    -26.011208    -117.622604    -8.619254    -30.690273    -13.794405    -2.229661    10.247700    -3.110723    26.852436    12.550986    46.175785    -9.714582    5.688737    48.477882    -26.015949    4.190133    25.069592    24.749548    -6.628009    -4.727809    -10.497241    31.902790    -24.744934    -16.592733    -19.636324    41.324471    0.000000    0.000000    0.000000    -19.275421    -26.698792    -8.819235    15.327784    40.836048    -11.391495    0.530326    -10.703646    -12.090584    0.000000    0.000000    0.000000    
